<?xml version="1.0" standalone="no"?>
<!DOCTYPE svg PUBLIC "-//W3C//DTD SVG 20010904//EN"
 "http://www.w3.org/TR/2001/REC-SVG-20010904/DTD/svg10.dtd">
<svg version="1.0" xmlns="http://www.w3.org/2000/svg"
 width="503.000000pt" height="503.000000pt" viewBox="0 0 503.000000 503.000000"
 preserveAspectRatio="xMidYMid meet">
<metadata>
Created by potrace 1.14, written by Peter Selinger 2001-2017
</metadata>
<g transform="translate(0.000000,503.000000) scale(0.100000,-0.100000)"
fill="#000000" stroke="none">
<path d="M2601 4939 c-65 -6 -88 -12 -103 -29 -10 -11 -24 -18 -29 -14 -11 7
-169 -39 -210 -61 -15 -8 -71 -29 -125 -46 -106 -34 -243 -98 -264 -124 -7 -9
-30 -23 -49 -32 -28 -12 -32 -17 -18 -20 18 -5 17 -6 -2 -20 -12 -8 -29 -12
-39 -9 -24 8 -65 -30 -93 -84 -12 -25 -32 -58 -43 -74 -26 -38 -56 -97 -56
-111 0 -5 -7 -23 -16 -40 -40 -76 -44 -106 -44 -325 -1 -167 -4 -219 -14 -233
-21 -28 -22 -515 -1 -583 19 -62 19 -98 0 -152 -16 -44 -14 -64 16 -247 5 -33
14 -109 19 -168 5 -59 15 -117 21 -128 6 -11 14 -41 19 -67 17 -92 28 -128 54
-179 14 -29 26 -55 26 -58 0 -3 13 -24 30 -47 16 -22 30 -45 30 -51 0 -5 14
-26 30 -47 17 -21 30 -45 30 -53 0 -8 6 -20 14 -26 8 -7 17 -35 21 -64 4 -29
12 -67 18 -84 9 -26 7 -43 -6 -86 -14 -45 -25 -59 -64 -86 -27 -18 -73 -50
-103 -71 -30 -21 -66 -42 -79 -45 -13 -3 -56 -28 -97 -56 -40 -27 -86 -54
-101 -60 -16 -5 -50 -21 -78 -34 -27 -12 -86 -34 -130 -48 -124 -40 -254 -86
-325 -116 -36 -15 -123 -47 -195 -70 -71 -23 -133 -46 -138 -50 -12 -12 153
-208 279 -332 113 -110 122 -116 170 -122 28 -4 64 -3 80 3 16 5 61 14 99 19
121 16 207 40 290 80 153 72 190 91 237 118 l48 27 72 -22 c334 -99 360 -105
488 -110 117 -4 334 17 349 35 5 5 -36 1 -154 -13 -76 -10 -278 -3 -346 11
-134 28 -346 93 -368 112 -20 17 0 39 42 49 18 3 34 9 37 13 14 17 92 61 110
61 11 0 20 6 20 14 0 8 4 17 9 20 5 4 7 -4 4 -16 -4 -19 -3 -20 6 -8 9 13 11
12 12 -5 l0 -20 8 20 8 20 5 -20 c5 -18 6 -18 7 -1 1 12 6 16 16 12 8 -3 15
-1 15 4 0 12 -37 23 -52 14 -7 -5 -9 -2 -5 9 3 9 -1 18 -9 21 -31 12 -8 31 34
27 28 -2 42 1 42 10 0 7 3 10 6 7 3 -4 22 5 41 18 38 26 84 31 129 14 19 -7
30 -7 40 1 8 6 25 9 39 7 21 -4 23 -3 14 13 -7 14 -6 19 3 19 7 0 4 6 -7 12
-23 13 -45 34 -45 42 0 3 18 11 40 17 21 7 37 16 34 21 -4 6 9 9 27 8 45 -2
72 7 87 31 16 25 8 39 -22 39 -24 0 -44 39 -26 50 5 3 5 12 1 19 -5 7 -6 22
-3 33 3 11 -1 24 -9 29 -19 12 15 40 99 79 34 17 62 35 62 40 0 6 7 10 15 10
8 0 20 9 27 20 17 27 43 27 28 0 -17 -32 4 -23 23 10 16 26 16 31 3 36 -13 5
-12 9 4 27 11 11 23 17 27 13 4 -4 1 -11 -7 -17 -11 -7 -9 -8 10 -7 30 4 60
27 60 48 0 12 2 12 9 1 11 -17 23 1 15 23 -5 12 0 16 17 16 12 0 20 3 16 6 -3
3 3 14 14 25 24 24 47 26 28 2 -10 -11 -10 -14 -1 -9 8 5 12 1 12 -10 0 -14 3
-13 20 6 11 13 23 20 27 17 9 -9 33 12 33 29 0 8 -6 11 -15 8 -26 -10 -7 22
21 35 13 6 28 21 33 33 5 13 27 43 50 68 22 25 41 48 41 52 0 5 16 30 35 57
19 27 40 64 47 82 6 19 22 50 35 69 12 19 23 47 23 62 0 15 9 42 19 60 10 18
22 54 26 80 3 27 10 48 16 48 5 0 9 8 9 19 0 13 7 19 25 19 21 0 23 -4 18 -32
-5 -30 -5 -30 10 -10 11 14 17 46 18 95 2 66 5 76 30 99 15 15 47 32 71 40
l43 14 -78 9 c-76 8 -79 8 -102 -17 -13 -14 -21 -26 -17 -26 4 0 2 -4 -3 -8
-22 -16 -44 -61 -51 -107 -6 -41 -9 -46 -19 -32 -7 9 -16 13 -20 9 -4 -4 -5 3
-2 15 3 13 1 26 -4 29 -5 3 -9 -2 -9 -10 0 -15 -13 -21 -35 -16 -5 1 -14 2
-20 3 -5 1 -12 5 -15 9 -4 4 -13 -8 -22 -27 -8 -19 -11 -32 -7 -29 5 3 9 -9 9
-25 0 -17 -5 -31 -11 -31 -7 0 -10 -12 -7 -30 7 -44 -31 -84 -66 -70 -23 8
-26 7 -27 -13 0 -12 -3 -16 -6 -10 -3 10 -10 10 -24 2 -16 -8 -20 -7 -18 3 5
41 -14 53 -26 16 -6 -22 -7 -21 -17 9 -6 18 -18 33 -26 35 -14 3 -14 5 0 18
16 16 30 93 16 84 -5 -3 -11 3 -15 12 -4 10 -2 19 5 22 15 5 16 32 1 32 -6 0
-9 9 -6 20 3 11 2 22 -3 25 -4 2 -10 -35 -14 -83 -8 -100 -23 -152 -42 -145
-8 3 -16 -6 -20 -21 -3 -14 -10 -26 -15 -26 -5 0 -9 -13 -9 -30 0 -19 -5 -30
-14 -30 -8 0 -17 -11 -20 -25 -6 -24 -26 -36 -26 -15 0 6 5 10 11 10 5 0 7 5
3 12 -5 7 -11 5 -21 -7 -10 -15 -13 -16 -13 -4 0 9 3 18 6 21 3 3 7 36 9 72 2
37 7 76 10 86 4 12 2 20 -5 20 -6 0 -8 10 -4 24 4 16 1 25 -10 29 -9 4 -16 14
-16 24 -1 16 -2 16 -18 -3 -22 -26 -40 -11 -34 29 4 26 2 28 -16 23 -15 -5
-22 -2 -25 11 -4 17 -5 17 -6 1 0 -10 -6 -18 -12 -18 -6 0 -9 -6 -6 -12 2 -7
1 -22 -3 -33 -7 -18 -9 -16 -20 13 -10 25 -15 30 -25 22 -8 -6 -16 -24 -20
-39 l-6 -27 -134 -1 c-122 0 -135 2 -135 18 0 9 5 19 12 21 10 4 15 22 17 69
1 9 20 36 44 60 l42 44 -59 3 c-48 2 -65 -1 -87 -17 l-28 -21 -37 25 c-20 14
-44 25 -54 25 -35 0 -54 37 -52 103 1 34 6 78 12 97 5 19 10 62 10 95 1 33 8
78 16 100 9 22 19 63 24 92 8 49 37 113 51 113 10 0 28 52 26 75 -1 11 3 21 8
23 6 1 10 -2 10 -8 0 -5 10 -17 23 -25 12 -9 22 -21 22 -27 0 -7 8 -21 18 -32
10 -12 25 -37 32 -56 17 -46 45 -76 98 -107 23 -14 42 -28 42 -32 0 -18 103
-51 181 -57 78 -7 83 -6 70 9 -12 15 -11 17 9 17 21 0 22 1 8 18 -9 9 -14 22
-11 28 2 7 -10 17 -27 23 -17 6 -29 15 -25 21 3 6 -4 11 -17 11 -37 2 52 18
104 18 26 1 49 5 52 9 8 13 -99 62 -134 62 -33 0 -22 19 14 26 41 7 96 -9 150
-43 30 -19 46 -23 72 -18 43 8 43 18 -1 34 -45 16 -37 31 13 24 l37 -5 -33 21
c-18 12 -37 21 -43 21 -5 0 -23 14 -39 30 -17 17 -30 27 -30 22 0 -4 5 -13 12
-20 9 -9 8 -12 -4 -12 -21 0 -43 26 -28 35 19 12 12 38 -10 32 -10 -3 -21 0
-23 6 -7 21 -83 32 -185 27 -83 -4 -106 -9 -116 -22 -10 -14 -19 -16 -42 -9
-33 9 -55 4 -67 -15 -13 -23 -50 -16 -75 14 -13 15 -21 21 -17 14 10 -20 -26
-28 -40 -9 -13 18 -45 23 -45 8 0 -5 -12 -11 -27 -14 -20 -4 -33 1 -46 14 -10
10 -25 19 -33 19 -8 0 -12 4 -9 10 3 6 -1 7 -9 4 -9 -3 -16 -1 -16 5 0 6 -11
11 -24 11 -14 0 -31 8 -38 18 -7 10 -25 27 -40 36 -16 10 -28 25 -28 33 0 8
-4 12 -9 9 -5 -3 -13 7 -19 22 -5 16 -22 42 -36 57 -18 20 -25 36 -22 50 3 11
6 26 6 33 0 7 8 12 18 10 14 -3 16 3 14 35 -2 20 0 37 5 37 15 0 2 123 -15
142 -21 25 -24 99 -3 120 31 32 38 43 33 56 -2 6 5 15 15 19 10 3 26 13 36 22
16 13 20 13 27 1 5 -8 6 -18 3 -23 -6 -10 34 0 52 12 6 4 39 7 75 6 39 -1 73
4 85 12 25 16 35 17 35 0 0 -13 28 -14 68 -2 15 5 22 16 23 34 1 17 3 20 6 9
5 -21 29 -24 36 -5 3 7 6 4 6 -7 1 -15 6 -17 30 -13 21 4 36 0 52 -13 23 -21
65 -28 54 -10 -3 6 2 10 12 10 10 0 25 5 33 11 12 9 11 10 -7 6 -16 -3 -27 2
-38 19 -15 23 -14 25 12 35 15 6 35 15 43 19 8 4 24 3 36 -2 45 -21 177 49
152 79 -8 10 -6 13 6 13 10 0 14 5 11 10 -4 6 7 15 23 21 33 11 51 39 26 39
-8 0 -12 4 -9 10 3 5 -1 20 -9 32 -20 28 -20 42 -1 34 9 -3 18 1 21 9 4 8 10
15 15 15 4 0 5 -7 2 -17 -4 -10 -2 -14 5 -9 19 12 25 -15 6 -30 -18 -13 -18
-14 6 -13 43 3 61 -1 55 -11 -3 -5 -2 -10 2 -10 5 0 18 -7 29 -15 19 -15 19
-16 -1 -13 -41 4 -86 -23 -54 -34 5 -2 7 -11 4 -21 -5 -12 -14 -15 -30 -11
-26 6 -38 -6 -29 -30 4 -10 18 -16 40 -16 27 0 34 4 34 20 0 25 25 26 48 3 16
-16 17 -16 20 0 4 20 34 22 65 6 12 -7 30 -13 42 -13 11 -1 19 -8 17 -15 -2
-8 3 -11 12 -8 10 4 20 -2 27 -15 8 -15 13 -17 19 -8 6 9 13 7 29 -9 11 -11
21 -25 21 -30 0 -5 7 -12 16 -15 12 -5 15 -14 10 -37 -3 -17 -2 -28 3 -24 5 3
13 0 17 -6 5 -9 11 -7 21 6 7 11 13 17 14 14 6 -45 4 -77 -4 -72 -11 6 -2 -11
17 -36 6 -7 11 -19 11 -25 0 -6 8 -27 17 -46 9 -19 24 -55 32 -80 8 -25 15
-38 16 -30 1 25 20 -11 20 -38 0 -14 4 -21 11 -17 6 4 10 1 8 -6 -4 -36 1 -43
16 -22 14 20 13 24 -11 48 -24 24 -26 32 -21 78 6 52 -6 87 -30 87 -16 0 -23
41 -10 54 9 10 16 7 33 -11 11 -12 24 -20 27 -16 4 3 7 -5 7 -18 0 -37 11 -69
21 -63 5 3 9 -2 9 -10 0 -8 4 -17 8 -20 5 -3 8 17 8 43 -1 27 2 47 7 44 4 -2
7 3 7 11 0 9 -4 16 -8 16 -4 0 -8 10 -9 23 -2 21 -1 21 13 3 20 -28 18 -8 -11
81 -28 89 -48 123 -74 123 -27 0 -31 -10 -17 -39 8 -14 17 -46 21 -71 7 -40 9
-42 16 -20 l7 25 2 -25 2 -25 8 25 7 25 11 -26 c6 -15 9 -35 7 -45 -2 -11 -4
-22 -4 -26 -1 -6 -60 -2 -66 4 -2 2 -10 19 -19 38 -9 19 -14 25 -12 13 5 -27
-20 -20 -29 8 -8 23 2 42 17 33 7 -5 8 -2 3 6 -4 7 -2 16 6 20 9 6 10 12 2 22
-6 7 -14 25 -19 39 -5 15 -29 43 -52 63 -24 20 -39 36 -32 36 6 0 19 -8 28
-17 16 -15 17 -15 20 0 2 9 -12 30 -30 47 -30 29 -31 31 -10 27 23 -5 23 -5 6
14 -23 26 -10 36 28 21 43 -16 45 -10 8 28 -17 17 -28 35 -25 39 2 5 -2 14
-10 21 -20 17 -19 31 3 23 31 -12 152 -127 141 -134 -16 -9 1 -36 57 -89 26
-25 44 -40 41 -34 -12 21 -19 86 -9 80 6 -3 13 1 16 10 3 8 2 13 -3 10 -8 -6
-25 23 -18 30 2 2 20 -12 41 -32 38 -36 42 -59 6 -36 -11 6 -21 8 -25 2 -3 -5
-1 -11 5 -15 5 -3 10 -15 10 -26 0 -19 19 -22 32 -4 5 6 8 5 8 -3 0 -7 5 -10
10 -7 8 5 7 11 0 20 -13 15 -4 39 11 30 5 -3 6 2 2 11 -4 11 -3 15 5 10 6 -3
13 -2 16 3 8 12 -35 63 -68 80 -14 8 -26 21 -26 30 0 20 -76 107 -90 103 -16
-4 -80 26 -80 38 0 6 -16 18 -35 27 -39 19 -48 38 -12 28 14 -4 -10 25 -66 79
-48 47 -94 86 -101 86 -8 0 -35 9 -61 20 -95 41 -238 54 -404 39z m79 -68 c0
-5 23 -14 50 -21 28 -7 53 -16 56 -21 3 -5 27 -18 54 -30 27 -11 51 -28 55
-37 5 -14 4 -15 -6 -4 -7 6 -18 12 -24 12 -10 0 37 -47 89 -87 15 -12 26 -24
24 -26 -2 -3 6 -14 16 -26 l19 -21 -34 6 -34 6 35 -30 c19 -17 38 -31 42 -32
11 0 57 -48 51 -53 -2 -3 9 -9 26 -15 16 -6 32 -8 35 -5 3 4 6 2 6 -4 0 -5 -2
-12 -5 -15 -6 -6 -66 22 -89 41 -7 6 -32 18 -56 26 l-43 15 19 -22 19 -22 -32
23 c-48 33 -52 44 -12 37 32 -7 33 -6 14 9 -44 34 -85 75 -87 86 -4 17 -50 70
-56 64 -3 -2 1 -11 8 -20 18 -21 5 -31 -15 -11 -10 10 -28 14 -48 12 -33 -3
-72 9 -95 31 -11 11 -11 13 0 13 10 0 9 3 -2 10 -31 20 3 9 46 -15 54 -30 63
-31 39 -5 -10 11 -26 20 -37 20 -10 0 -18 5 -18 10 0 6 -6 10 -14 10 -8 0 -16
5 -18 12 -2 6 -19 11 -38 10 -39 -1 -100 26 -65 29 11 1 26 0 34 -1 8 -1 12 4
8 13 -3 8 0 20 6 26 13 13 77 15 77 2z m-165 -80 c-3 -6 -11 -11 -17 -11 -6 0
-6 6 2 15 14 17 26 13 15 -4z m480 -78 c33 -6 137 -54 131 -60 -6 -6 -126 36
-165 58 -20 11 -27 17 -16 14 11 -4 34 -9 50 -12z m-315 -53 c0 -5 7 -10 15
-10 14 0 20 -12 16 -34 -1 -5 1 -16 5 -25 5 -11 9 -6 14 19 4 24 10 34 20 31
8 -2 22 -4 30 -4 8 0 21 -4 28 -10 14 -11 16 -31 2 -22 -5 3 -10 2 -10 -4 0
-5 6 -12 13 -15 6 -3 1 -3 -13 0 l-25 5 23 -20 c12 -10 22 -24 22 -30 0 -5
-12 2 -27 17 -15 15 -26 33 -25 41 2 7 -1 10 -6 7 -6 -3 -13 0 -16 6 -3 7 -4
4 -1 -8 3 -12 -1 -26 -9 -33 -11 -9 -18 -7 -34 14 -11 14 -30 26 -43 26 -19 1
-20 2 -6 6 14 4 17 11 13 29 -4 14 -2 24 4 24 5 0 10 -4 10 -10z m-830 -90 c0
-5 -10 -10 -22 -10 -19 0 -20 2 -8 10 19 13 30 13 30 0z m1536 -17 c35 -38 19
-43 -19 -5 -17 18 -26 32 -19 32 7 0 24 -12 38 -27z m-236 -35 c0 -4 -2 -8 -5
-8 -13 0 -62 30 -75 45 -10 13 -2 11 33 -6 26 -13 47 -27 47 -31z m-274 -7
c60 -37 130 -94 105 -86 -51 16 -91 36 -91 45 0 5 -7 6 -17 3 -11 -4 -14 -3
-9 6 4 7 -2 20 -16 31 -30 25 -12 26 28 1z m171 -23 c44 -25 79 -58 62 -58 -9
0 -66 39 -103 72 -18 15 3 8 41 -14z m472 -62 c-10 -12 -14 -8 -24 22 -7 23
-7 24 13 5 10 -10 15 -22 11 -27z m-869 0 c0 -2 -8 -10 -17 -17 -16 -13 -17
-12 -4 4 13 16 21 21 21 13z m475 -25 c9 14 25 11 25 -6 0 -24 -46 -18 -77 11
l-28 26 37 -20 c22 -12 40 -17 43 -11z m-859 -117 c-4 -9 -9 -15 -11 -12 -3 3
-3 13 1 22 4 9 9 15 11 12 3 -3 3 -13 -1 -22z m-290 -41 c-10 -10 -19 5 -10
18 6 11 8 11 12 0 2 -7 1 -15 -2 -18z m212 -1735 c16 -16 15 -25 -4 -32 -22
-9 -64 4 -64 19 0 24 48 33 68 13z m1014 -29 c13 -9 13 -82 0 -87 -7 -2 -12
-14 -12 -26 0 -12 -8 -32 -17 -45 -16 -23 -17 -23 -24 -5 -7 17 -8 17 -8 2 -1
-16 -11 -22 -32 -20 -4 1 -5 -17 -4 -39 2 -41 -11 -62 -21 -35 -3 8 -14 18
-25 21 -23 7 -25 25 -4 25 8 0 16 7 17 15 0 8 1 21 2 28 2 22 25 40 39 29 9
-8 11 9 8 75 -2 61 0 84 8 79 6 -4 9 -20 6 -37 -5 -28 -4 -29 15 -19 11 6 20
21 20 34 0 27 13 43 19 24 2 -7 8 -16 13 -19z m-647 -59 c3 -1 10 -3 17 -4 18
-2 46 -57 47 -92 1 -18 -8 -40 -21 -54 -15 -16 -17 -22 -6 -18 16 6 38 -8 38
-25 0 -5 -7 -7 -15 -3 -8 3 -15 0 -15 -6 0 -7 -4 -7 -13 0 -17 14 -42 -14 -52
-57 -4 -17 -11 -31 -15 -31 -5 0 -7 8 -4 18 5 14 4 15 -5 2 -6 -8 -11 -26 -11
-39 0 -16 -4 -21 -15 -18 -15 6 -24 -23 -28 -95 -3 -48 -18 -64 -45 -49 -14 8
-23 8 -27 1 -4 -6 -15 -8 -24 -5 -11 3 -29 -6 -50 -26 l-32 -30 -25 26 c-20
22 -24 23 -24 8 0 -15 -2 -16 -10 -3 -8 12 -10 8 -11 -15 l-2 -30 -4 28 c-3
21 -9 27 -20 23 -8 -3 -19 -6 -24 -6 -5 0 -9 -10 -9 -22 0 -19 -2 -20 -10 -8
-5 8 -10 25 -10 37 0 12 -6 23 -12 26 -10 3 -10 7 1 20 7 9 17 14 22 12 12 -8
49 17 49 33 0 7 -4 10 -10 7 -5 -3 -10 -1 -10 5 0 7 7 10 15 6 18 -7 82 29 95
54 5 10 26 20 50 24 42 7 46 15 30 66 -5 17 -8 19 -9 8 -1 -19 -21 -26 -21 -8
0 6 1 11 2 13 3 5 -23 47 -30 46 -25 -4 -41 3 -36 15 3 8 1 17 -5 21 -6 3 -11
-1 -11 -9 0 -8 -5 -18 -10 -21 -7 -4 -9 2 -4 19 6 24 4 26 -31 26 -58 0 -150
50 -129 69 10 9 225 49 264 49 14 0 45 4 70 9 41 8 133 10 145 3z m342 -92
c-3 -8 -6 -5 -6 6 -1 11 2 17 5 13 3 -3 4 -12 1 -19z m-241 -14 c-4 -9 -9 -15
-11 -12 -3 3 -3 13 1 22 4 9 9 15 11 12 3 -3 3 -13 -1 -22z m281 4 c-3 -8 -6
-5 -6 6 -1 11 2 17 5 13 3 -3 4 -12 1 -19z m118 5 c-3 -8 -5 -21 -5 -29 0 -9
-4 -12 -10 -9 -16 10 -12 52 5 52 10 0 14 -6 10 -14z m-542 -279 c9 -3 13 -13
10 -25 -6 -23 -23 -26 -23 -3 0 8 -4 12 -10 9 -11 -7 -14 8 -3 18 8 8 8 8 26
1z m-9 -88 c-9 -29 -14 -33 -24 -17 -11 18 -3 38 16 38 10 0 12 -7 8 -21z
m-259 -66 c-3 -5 -11 -10 -16 -10 -6 0 -7 5 -4 10 3 6 11 10 16 10 6 0 7 -4 4
-10z"/>
<path d="M2620 4860 c0 -5 9 -11 19 -15 11 -3 23 -15 26 -26 8 -25 61 -53 71
-38 3 6 0 17 -7 24 -23 21 -109 65 -109 55z"/>
<path d="M2819 4773 c-1 -5 -1 -12 0 -17 1 -5 -8 -6 -19 -3 -17 4 -19 3 -9 -9
6 -7 15 -12 19 -9 4 3 18 -4 31 -14 24 -18 59 -24 59 -10 0 4 -14 17 -30 29
-17 12 -28 26 -25 31 4 5 -1 9 -9 9 -9 0 -17 -3 -17 -7z"/>
<path d="M2890 4651 c0 -10 30 -24 37 -17 3 2 -5 9 -16 16 -12 6 -21 7 -21 1z"/>
<path d="M3141 2394 c0 -11 3 -14 6 -6 3 7 2 16 -1 19 -3 4 -6 -2 -5 -13z"/>
<path d="M3550 4390 c0 -5 5 -10 10 -10 6 0 10 5 10 10 0 6 -4 10 -10 10 -5 0
-10 -4 -10 -10z"/>
<path d="M3316 4357 c3 -10 9 -15 12 -12 3 3 0 11 -7 18 -10 9 -11 8 -5 -6z"/>
<path d="M3490 4301 c0 -5 7 -12 16 -15 14 -5 15 -4 4 9 -14 17 -20 19 -20 6z"/>
<path d="M3626 4293 c4 -12 12 -28 20 -34 20 -17 17 2 -6 31 -18 24 -19 24
-14 3z"/>
<path d="M3405 4269 c1 -19 12 -40 29 -54 14 -12 26 -27 26 -33 0 -6 5 -14 11
-17 20 -13 -4 70 -30 102 -33 40 -39 40 -36 2z"/>
<path d="M3546 4187 c3 -10 9 -15 12 -12 3 3 0 11 -7 18 -10 9 -11 8 -5 -6z"/>
<path d="M3681 4184 c0 -11 3 -14 6 -6 3 7 2 16 -1 19 -3 4 -6 -2 -5 -13z"/>
<path d="M3609 4148 c26 -43 45 -50 30 -12 -5 16 -16 32 -22 36 -25 16 -28 7
-8 -24z"/>
<path d="M3471 4103 c-1 -17 -6 -22 -23 -20 -16 1 -23 -3 -23 -15 0 -9 -4 -20
-8 -24 -4 -4 -7 -23 -7 -42 0 -30 2 -33 15 -22 11 9 12 16 4 26 -6 7 -9 19 -6
26 13 36 24 -50 21 -162 -3 -107 -2 -122 10 -107 19 24 23 21 18 -14 -3 -22
-7 -27 -13 -18 -5 8 -9 9 -9 3 0 -5 10 -21 22 -33 18 -20 19 -27 9 -43 -7 -11
-10 -32 -6 -47 3 -17 0 -34 -10 -46 -15 -19 -16 -18 -10 18 4 27 3 37 -4 32
-6 -3 -11 -13 -11 -21 0 -8 -6 -24 -12 -35 -10 -17 -10 -23 0 -26 17 -7 15
-33 -3 -33 -8 0 -15 -9 -15 -20 0 -11 -7 -23 -15 -26 -8 -4 -15 -14 -15 -24 0
-11 -4 -21 -9 -24 -5 -3 -11 -21 -13 -40 -3 -27 -1 -33 9 -25 9 9 10 4 1 -23
-5 -18 -13 -46 -16 -62 l-5 -30 30 35 c16 18 44 54 63 79 58 77 150 159 187
166 33 6 33 6 33 64 0 32 -7 70 -14 86 -8 15 -12 32 -9 38 4 5 11 -2 16 -17
10 -31 23 -35 30 -9 8 28 8 186 0 179 -8 -8 -12 -35 -16 -91 -2 -43 -19 -56
-44 -35 -14 12 -15 11 -9 -9 6 -16 3 -22 -8 -22 -9 0 -16 8 -16 19 0 29 11 52
22 45 6 -4 5 3 -1 15 -17 30 -29 26 -34 -11 -2 -18 -5 6 -5 55 -2 71 1 87 13
87 9 0 15 -9 15 -25 0 -14 5 -25 10 -25 6 0 10 6 10 13 0 8 4 7 10 -3 5 -8 10
-10 10 -4 0 6 -7 17 -15 24 -8 7 -15 19 -15 27 0 8 -4 11 -10 8 -5 -3 -10 1
-10 10 0 10 5 13 12 9 8 -5 9 -2 5 9 -3 10 -2 17 2 17 5 0 12 -6 14 -12 3 -8
6 -6 6 5 1 23 21 22 21 -2 0 -10 7 -21 15 -25 16 -6 21 -36 6 -36 -5 0 -16 10
-24 23 l-16 22 0 -24 c-1 -13 2 -22 5 -18 3 3 16 -3 27 -14 21 -19 21 -19 34
3 17 31 16 38 -3 38 -9 0 -21 14 -27 30 -6 17 -17 30 -24 30 -7 0 -15 12 -19
28 -3 15 -12 43 -19 62 -10 27 -15 31 -20 18 -3 -9 1 -30 9 -47 18 -34 20 -51
7 -51 -5 0 -11 14 -15 30 -3 17 -9 43 -12 59 -6 31 -34 52 -34 25 0 -8 5 -12
10 -9 16 10 12 -35 -4 -51 -13 -12 -15 -11 -18 8 -2 13 -9 24 -15 24 -7 1 -17
2 -22 3 -5 0 -12 11 -14 24 l-4 22 -2 -22z m-1 -53 c0 -5 -5 -10 -11 -10 -5 0
-7 5 -4 10 3 6 8 10 11 10 2 0 4 -4 4 -10z m41 -108 c-15 -31 -14 -35 4 -28
12 4 15 -3 15 -29 0 -38 -16 -54 -35 -34 -16 18 -28 96 -15 104 6 3 7 -1 4 -9
-3 -9 -1 -16 5 -16 7 0 11 25 12 68 l1 67 10 -50 c6 -33 6 -57 -1 -73z m-24
46 c-3 -8 -6 -5 -6 6 -1 11 2 17 5 13 3 -3 4 -12 1 -19z m96 -49 c-6 -32 -6
-32 -15 -9 -5 14 -6 36 -3 50 6 21 8 22 16 8 5 -9 6 -31 2 -49z m-116 -96 c-3
-10 -5 -4 -5 12 0 17 2 24 5 18 2 -7 2 -21 0 -30z m135 -231 c-3 -18 -7 -20
-13 -10 -11 16 -12 52 -2 62 11 10 20 -24 15 -52z m-88 -108 c9 -35 -5 -48
-30 -29 -13 11 -14 14 -4 13 10 -2 14 4 13 20 -4 31 13 28 21 -4z m-115 -138
c-9 -8 -10 -7 -5 7 3 10 7 26 7 35 1 9 4 6 6 -7 3 -13 -1 -28 -8 -35z"/>
<path d="M3686 4071 c-7 -11 14 -51 26 -51 11 0 10 4 -6 35 -8 15 -17 22 -20
16z"/>
<path d="M3680 3968 c0 -9 5 -20 11 -23 17 -11 18 -2 3 19 -12 17 -14 17 -14
4z"/>
<path d="M3580 3846 c0 -10 4 -15 9 -12 5 4 12 0 14 -6 4 -8 6 -9 6 -2 1 6 -6
17 -14 24 -12 10 -15 9 -15 -4z"/>
<path d="M3310 3821 c0 -26 15 -35 17 -11 1 11 -2 22 -8 25 -5 4 -9 -3 -9 -14z"/>
<path d="M3446 3674 c-3 -9 -2 -23 4 -32 9 -16 9 -16 10 0 0 9 3 23 6 32 3 9
2 16 -4 16 -5 0 -13 -7 -16 -16z"/>
<path d="M3629 3423 c-14 -9 -32 -25 -39 -37 -10 -17 -10 -19 1 -8 38 35 113
-11 111 -69 -2 -43 12 -69 29 -52 7 7 10 35 7 77 -6 97 -45 129 -109 89z"/>
<path d="M3760 3415 c0 -5 5 -17 10 -25 5 -8 10 -10 10 -5 0 6 -5 17 -10 25
-5 8 -10 11 -10 5z"/>
<path d="M3545 3340 c-3 -5 -1 -10 4 -10 6 0 11 5 11 10 0 6 -2 10 -4 10 -3 0
-8 -4 -11 -10z"/>
<path d="M3780 3312 c0 -26 4 -41 10 -37 13 8 13 45 0 65 -7 11 -10 3 -10 -28z"/>
<path d="M3766 3236 c-3 -13 -9 -32 -12 -43 -5 -12 -4 -15 3 -8 11 10 28 75
20 75 -3 0 -8 -11 -11 -24z"/>
<path d="M3492 3227 c-40 -48 -32 -103 26 -167 26 -28 32 -31 38 -17 3 9 12
17 20 17 9 0 14 11 14 32 0 29 -1 30 -14 13 -13 -18 -14 -18 -20 3 -4 13 -6
37 -5 55 3 37 -4 53 -31 67 -12 7 -21 6 -28 -3z"/>
<path d="M2815 3223 c22 -3 44 -9 50 -14 5 -5 18 -9 30 -9 20 1 20 1 1 15 -12
9 -39 14 -70 13 -47 -1 -48 -2 -11 -5z"/>
<path d="M3570 3155 c0 -8 2 -15 4 -15 2 0 6 7 10 15 3 8 1 15 -4 15 -6 0 -10
-7 -10 -15z"/>
<path d="M3738 3141 c-11 -49 -10 -67 3 -54 6 6 9 28 7 49 l-3 39 -7 -34z"/>
<path d="M3701 3014 c-12 -27 -11 -28 4 -12 10 9 16 21 13 28 -2 7 -10 -1 -17
-16z"/>
<path d="M3321 2969 c-24 -38 -26 -49 -10 -49 11 0 43 69 35 77 -3 3 -14 -10
-25 -28z"/>
<path d="M3676 2952 c-5 -18 -5 -36 -2 -39 7 -7 19 43 13 59 -2 7 -7 -2 -11
-20z"/>
<path d="M3636 2866 c-9 -14 -16 -31 -16 -38 0 -7 10 2 21 20 12 18 19 35 17
38 -3 2 -13 -7 -22 -20z"/>
<path d="M2430 2824 c-6 -14 -10 -27 -10 -29 0 -2 32 -37 70 -78 55 -58 81
-78 115 -88 25 -7 45 -19 45 -27 0 -7 5 -10 11 -6 6 3 15 0 20 -7 5 -9 6 1 2
24 -10 64 30 43 100 -53 l18 -25 -5 34 c-6 35 -53 99 -73 100 -7 1 -30 16 -50
35 -59 52 -205 146 -228 146 -3 0 -10 -12 -15 -26z"/>
<path d="M3236 2808 c-9 -29 -17 -73 -13 -68 3 3 14 22 26 43 17 30 18 37 6
37 -9 0 -17 -6 -19 -12z"/>
<path d="M3256 2685 c-3 -8 -1 -15 4 -15 6 0 10 7 10 15 0 8 -2 15 -4 15 -2 0
-6 -7 -10 -15z"/>
<path d="M2990 2437 c0 -7 5 -18 12 -25 9 -9 9 -12 0 -12 -7 0 -12 -5 -12 -12
0 -6 7 -5 18 5 15 13 21 14 31 4 10 -9 11 -9 6 5 -9 24 -55 53 -55 35z"/>
<path d="M3020 2446 c0 -2 7 -7 16 -10 8 -3 12 -2 9 4 -6 10 -25 14 -25 6z"/>
<path d="M3318 2400 c-4 -14 -8 -36 -8 -50 1 -22 2 -23 11 -7 6 9 9 32 7 50
-3 31 -3 31 -10 7z"/>
<path d="M2960 2380 c0 -5 5 -10 11 -10 5 0 7 5 4 10 -3 6 -8 10 -11 10 -2 0
-4 -4 -4 -10z"/>
<path d="M3293 2190 c0 -36 2 -50 4 -32 2 17 2 47 0 65 -2 17 -4 3 -4 -33z"/>
<path d="M3273 1825 c0 -44 2 -61 4 -37 2 23 2 59 0 80 -2 20 -4 1 -4 -43z"/>
<path d="M2840 1739 c0 -5 5 -7 10 -4 6 3 10 8 10 11 0 2 -4 4 -10 4 -5 0 -10
-5 -10 -11z"/>
<path d="M3280 1729 c0 -17 75 -122 91 -128 13 -4 -6 35 -22 44 -5 4 -23 28
-39 53 -16 26 -30 40 -30 31z"/>
<path d="M2910 1709 c0 -5 5 -7 10 -4 6 3 10 8 10 11 0 2 -4 4 -10 4 -5 0 -10
-5 -10 -11z"/>
<path d="M2595 1530 c-3 -5 -1 -10 4 -10 6 0 11 5 11 10 0 6 -2 10 -4 10 -3 0
-8 -4 -11 -10z"/>
<path d="M2349 1067 c6 -8 8 -17 4 -20 -3 -4 4 -7 16 -7 28 0 23 20 -8 32 -20
7 -22 6 -12 -5z"/>
<path d="M2152 980 c0 -14 2 -19 5 -12 2 6 2 18 0 25 -3 6 -5 1 -5 -13z"/>
<path d="M2061 974 c0 -11 3 -14 6 -6 3 7 2 16 -1 19 -3 4 -6 -2 -5 -13z"/>
<path d="M2104 975 c-4 -9 -4 -19 0 -22 3 -4 6 0 7 8 0 8 4 6 9 -6 8 -19 9
-19 9 2 1 27 -17 40 -25 18z"/>
<path d="M2168 957 c-3 -19 -2 -25 4 -19 6 6 8 18 6 28 -3 14 -5 12 -10 -9z"/>
<path d="M2325 970 c-8 -13 4 -50 16 -50 5 0 9 6 9 13 0 8 4 7 10 -3 7 -11 10
-7 10 18 0 25 -4 32 -19 32 -11 0 -23 -5 -26 -10z"/>
<path d="M2382 955 c0 -16 2 -22 5 -12 2 9 2 23 0 30 -3 6 -5 -1 -5 -18z"/>
<path d="M2400 939 c0 -5 5 -7 10 -4 6 3 10 8 10 11 0 2 -4 4 -10 4 -5 0 -10
-5 -10 -11z"/>
<path d="M2276 805 c-3 -8 -1 -15 4 -15 6 0 10 7 10 15 0 8 -2 15 -4 15 -2 0
-6 -7 -10 -15z"/>
</g>
</svg>
