<svg height="16" viewBox="0 0 16 16" width="16" xmlns="http://www.w3.org/2000/svg"><path d="m4 4h5c.55228 0 1-.44772 1-1s-.44772-1-1-1h-5c-1.10457 0-2 .89543-2 2v8c0 1.1046.89543 2 2 2h8c1.1046 0 2-.8954 2-2v-2c0-.55229-.4477-1-1-1s-1 .44771-1 1v2h-8zm11.2071-1.70711c-.3905-.39052-1.0237-.39052-1.4142 0l-5.2929 5.2929-.79289-.7929c-.39053-.39052-1.02369-.39052-1.41422 0-.39052.39053-.39052 1.02369 0 1.41422l1.5 1.5c.18754.18753.44189.29289.70711.29289s.51957-.10536.70711-.29289l5.99999-6c.3905-.39053.3905-1.02369 0-1.41422z" fill-rule="evenodd"/></svg>