<svg viewBox="0 0 400 300" xmlns="http://www.w3.org/2000/svg"><rect fill="#68e1fd" height="130.59" rx="10.61" width="172.76" x="117.37" y="65.81"/><path d="m279.52 197.4h-151.52a11.63 11.63 0 0 1 -11.61-11.61v-109.37a11.63 11.63 0 0 1 11.61-11.61h151.52a11.62 11.62 0 0 1 11.61 11.61v109.37a11.62 11.62 0 0 1 -11.61 11.61zm-151.52-130.59a9.62 9.62 0 0 0 -9.61 9.61v109.37a9.62 9.62 0 0 0 9.61 9.61h151.52a9.62 9.62 0 0 0 9.61-9.61v-109.37a9.62 9.62 0 0 0 -9.61-9.61z" fill="#093f68"/><path d="m234.37 224.48h-61.24l6.39-28.08h48.46z" fill="#093f68"/><path d="m234.37 225.48h-61.24a1 1 0 0 1 -.78-.37 1 1 0 0 1 -.19-.85l6.39-28.08a1 1 0 0 1 1-.78h48.45a1 1 0 0 1 1 .78l6.39 28.08a1 1 0 0 1 -.19.85 1 1 0 0 1 -.83.37zm-60-2h58.74l-5.93-26.08h-46.86z" fill="#093f68"/><path d="m129.15 76.69h149.21v96.93h-149.21z" fill="#fff"/><path d="m278.36 174.62h-149.21a1 1 0 0 1 -1-1v-96.93a1 1 0 0 1 1-1h149.21a1 1 0 0 1 1 1v96.93a1 1 0 0 1 -1 1zm-148.21-2h147.21v-94.93h-147.21z" fill="#093f68"/><path d="m167.3 132.11a.9.9 0 0 1 -.42-.1 1 1 0 0 1 -.48-1.33c.3-.65 7.6-16 16.83-18 4.23-.91 7.56-.15 10.51.52 3.55.8 6.61 1.49 10.77-.49 2.37-1.13 4.92-4.07 7.87-7.47 6.72-7.78 15.94-18.43 32.6-19a1 1 0 0 1 1 1 1 1 0 0 1 -1 1c-15.79.56-24.67 10.83-31.16 18.32-3.1 3.58-5.77 6.67-8.52 8-4.79 2.28-8.49 1.44-12.07.63-2.88-.66-5.85-1.33-9.65-.52-8.26 1.78-15.37 16.75-15.44 16.9a1 1 0 0 1 -.84.54z" fill="#dfeaef"/><rect fill="#68e1fd" height="9.71" rx="4.85" width="86.72" x="160.39" y="224.48"/><path d="m242.26 235.19h-77a5.86 5.86 0 1 1 0-11.71h77a5.86 5.86 0 0 1 0 11.71zm-77-9.71a3.86 3.86 0 1 0 0 7.71h77a3.86 3.86 0 0 0 0-7.71z" fill="#093f68"/><path d="m262.19 155.23h-116.88a1 1 0 0 1 -1-1v-67a1 1 0 0 1 2 0v66h115.88a1 1 0 0 1 0 2z" fill="#093f68"/><path d="m158.84 133.92h18.94v20.3h-18.94z" fill="#ffbc0e"/><path d="m177.78 155.23h-18.94a1 1 0 0 1 -1-1v-20.31a1 1 0 0 1 1-1h18.94a1 1 0 0 1 1 1v20.31a1 1 0 0 1 -1 1zm-17.94-2h16.94v-18.31h-16.94z" fill="#093f68"/><path d="m194.28 119.68h18.94v34.54h-18.94z" fill="#fff"/><path d="m213.22 155.23h-18.94a1 1 0 0 1 -1-1v-34.55a1 1 0 0 1 1-1h18.94a1 1 0 0 1 1 1v34.55a1 1 0 0 1 -1 1zm-17.94-2h16.94v-32.55h-16.94z" fill="#093f68"/><path d="m229.72 101.36h18.94v52.87h-18.94z" fill="#70cc40"/><path d="m248.66 155.23h-18.94a1 1 0 0 1 -1-1v-52.87a1 1 0 0 1 1-1h18.94a1 1 0 0 1 1 1v52.87a1 1 0 0 1 -1 1zm-17.94-2h16.94v-50.87h-16.94z" fill="#093f68"/><path d="m136.98 168.24h9.71v17.74h-9.71z" fill="#093f68" transform="matrix(.81674227 .57700265 -.57700265 .81674227 128.17 -49.38)"/><path d="m140.68 188.15a1 1 0 0 1 -.58-.18l-7.93-5.6a1 1 0 0 1 -.24-1.4l10.24-14.49a1 1 0 0 1 1.39-.24l7.93 5.61a1 1 0 0 1 .24 1.39l-10.23 14.49a1 1 0 0 1 -.65.41zm-6.54-6.84 6.3 4.45 9.08-12.86-6.3-4.45z" fill="#093f68"/><path d="m142.39 156.9h14.91v17.74h-14.91z" fill="#f56132" transform="matrix(.81674227 .57700265 -.57700265 .81674227 123.09 -56.08)"/><path d="m150.81 178.31a1 1 0 0 1 -.57-.18l-12.18-8.6a1 1 0 0 1 -.24-1.39l10.24-14.49a1 1 0 0 1 .64-.41 1 1 0 0 1 .75.17l12.18 8.6a1 1 0 0 1 .24 1.39l-10.24 14.49a1 1 0 0 1 -.65.41zm-10.81-9.84 10.54 7.45 9.09-12.86-10.55-7.44z" fill="#093f68"/><rect fill="#f56132" height="40.64" rx="3.18" transform="matrix(.81674227 .57700265 -.57700265 .81674227 137.93 -36.5)" width="14.91" x="118.97" y="178.6"/><path d="m120 219.56a4.11 4.11 0 0 1 -2.4-.76l-7-4.94a4.18 4.18 0 0 1 -1-5.82l19.78-28a4.19 4.19 0 0 1 2.71-1.71 4.14 4.14 0 0 1 3.11.7l7 4.94a4.19 4.19 0 0 1 1.71 2.7 4.12 4.12 0 0 1 -.71 3.12l-19.78 28a4.16 4.16 0 0 1 -3.42 1.77zm-1.24-2.39a2.18 2.18 0 0 0 3-.52l19.78-28a2.17 2.17 0 0 0 -.52-3l-7-4.94a2.13 2.13 0 0 0 -1.62-.37 2.16 2.16 0 0 0 -1.41.89l-19.79 28a2.18 2.18 0 0 0 .53 3l7 4.94z" fill="#093f68"/><path d="m188.92 110.44a35 35 0 1 0 8.41 48.84 35 35 0 0 0 -8.41-48.84zm-33.71 47.73a23.39 23.39 0 1 1 32.61-5.61 23.41 23.41 0 0 1 -32.61 5.61z" fill="#f56132"/><path d="m168.66 175.09a36 36 0 1 1 20.84-65.47 36 36 0 0 1 -20.84 65.47zm.1-70.06a34 34 0 1 0 19.59 6.23 34 34 0 0 0 -19.59-6.26zm-.09 58.42a24.24 24.24 0 0 1 -14-4.47 24.39 24.39 0 1 1 14 4.47zm.09-46.79a22.75 22.75 0 0 0 -3.85.33 22.39 22.39 0 0 0 -9.12 40.36 22.39 22.39 0 1 0 13-40.69z" fill="#093f68"/><g fill="#dfeaef"><path d="m240.41 95.32a1 1 0 0 1 -.54-.16 1 1 0 0 1 -.3-1.38l4-6.16-7-3.42a1 1 0 1 1 .88-1.79l8 3.91a1 1 0 0 1 .55.68 1 1 0 0 1 -.13.81l-4.6 7.11a1 1 0 0 1 -.86.4z"/><path d="m194.28 89.81h-30.92a1 1 0 0 1 0-2h30.92a1 1 0 1 1 0 2z"/><path d="m184 97.58h-20.64a1 1 0 0 1 0-2h20.64a1 1 0 0 1 0 2z"/><path d="m262.19 163.46h-21.19a1 1 0 0 1 0-2h21.18a1 1 0 0 1 0 2z"/></g><path d="m203.75 190.67a5.28 5.28 0 1 1 5.28-5.28 5.29 5.29 0 0 1 -5.28 5.28zm0-8.56a3.28 3.28 0 1 0 3.28 3.28 3.28 3.28 0 0 0 -3.28-3.28z" fill="#093f68"/></svg>