<svg fill="none" height="24" viewBox="0 0 24 24" width="24" xmlns="http://www.w3.org/2000/svg"><g stroke="#292d32" stroke-linecap="round" stroke-linejoin="round" stroke-width="1.5"><path d="m15.51 2.82996h-7.02c-2.49 0-3.04 1.24-3.36 2.76l-1.13 5.41004h16l-1.13-5.41004c-.32-1.52-.87-2.76-3.36-2.76z"/><path d="m21.99 19.82c.11 1.17-.83 2.18-2.03 2.18h-1.88c-1.08 0-1.23-.46-1.42-1.03l-.2-.6c-.28-.82-.46-1.37-1.9-1.37h-5.12002c-1.44 0-1.65.62-1.9 1.37l-.2.6c-.19.57-.34 1.03-1.42 1.03h-1.88c-1.2 0-2.14-1.01-2.03-2.18l.56-6.09c.14-1.5.43-2.73 3.05-2.73h12.76002c2.62 0 2.91 1.23 3.05 2.73z"/><path d="m4 8h-1"/><path d="m21 8h-1"/><path d="m12 3v2"/><path d="m10.5 5h3"/><path d="m6 15h3"/><path d="m15 15h3"/></g></svg>