<svg fill="none" height="15" viewBox="0 0 15 15" width="15" xmlns="http://www.w3.org/2000/svg"><path d="m9.5 14.5h-.5c0 .1894.107.3625.27639.4472.1694.0847.3721.0664.52361-.0472zm2-1.5.3-.4c-.1778-.1333-.4222-.1333-.6 0zm2 1.5-.3.4c.1515.1136.3542.1319.5236.0472s.2764-.2578.2764-.4472zm-2-3.5c-1.3807 0-2.5-1.11929-2.5-2.5h-1c0 1.933 1.567 3.5 3.5 3.5zm2.5-2.5c0 1.38071-1.1193 2.5-2.5 2.5v1c1.933 0 3.5-1.567 3.5-3.5zm-2.5-2.5c1.3807 0 2.5 1.11929 2.5 2.5h1c0-1.933-1.567-3.5-3.5-3.5zm0-1c-1.933 0-3.5 1.567-3.5 3.5h1c0-1.38071 1.1193-2.5 2.5-2.5zm-2.5 5.5v4h1v-4zm.8 4.4 2-1.5-.6-.8-2 1.5zm1.4-1.5 2 1.5.6-.8-2-1.5zm2.8 1.1v-4h-1v4zm1-9.5v-3.5h-1v3.5zm-1.5-5h-12v1h12zm-13.5 1.5v12h1v-12zm1.5 13.5h6.5v-1h-6.5zm-1.5-1.5c0 .8284.671573 1.5 1.5 1.5v-1c-.27614 0-.5-.2239-.5-.5zm1.5-13.5c-.828426 0-1.5.671573-1.5 1.5h1c0-.27614.22386-.5.5-.5zm13.5 1.5c0-.828427-.6716-1.5-1.5-1.5v1c.2761 0 .5.22386.5.5zm-12 3.5h5v-1h-5zm0 3h3v-1h-3z" fill="#000"/></svg>