<svg viewBox="0 0 32 32" xmlns="http://www.w3.org/2000/svg"><path d="m10.06 17.88a4.25 4.25 0 0 0 .94.12 4 4 0 0 0 2.23-.68l3.22 2.87a3.88 3.88 0 0 0 -.2 3.17 4 4 0 1 0 6.37-4.36l2.54-5.09a3.78 3.78 0 0 0 2.91-.53 4 4 0 1 0 -4.69-.38l-2.54 5.09a3.86 3.86 0 0 0 -.84-.09 4 4 0 0 0 -2.23.68l-3.22-2.87a3.88 3.88 0 0 0 .2-3.17 4 4 0 1 0 -6.45 4.29l-4.3 8.07v-23h-2v26a2 2 0 0 0 2 2h26v-2h-25.33zm15.94-9.88a2 2 0 1 1 -2 2 2 2 0 0 1 2-2zm-4 14a2 2 0 1 1 -2-2 2 2 0 0 1 2 2zm-11-10a2 2 0 1 1 -2 2 2 2 0 0 1 2-2z"/><path d="m0 0h32v32h-32z" fill="none"/></svg>