<svg fill="none" height="400" viewBox="0 0 400 400" width="400" xmlns="http://www.w3.org/2000/svg"><g stroke="#000" stroke-linecap="round" stroke-linejoin="round" stroke-opacity=".9" stroke-width="16"><path d="m69 150.936c75.654-39.424 149.822-35.617 231.542-14.877"/><path d="m108.01 121.189c35.393-114.42928 121.6-90.9687 152.264.811"/><path d="m111 161c-15.9998.56 0 16.233 10 24-10 95 136 93 126-7 6.667-6 16-18.8 0-22"/><path d="m165 174c0-3.322 0-6.668 0-10"/><path d="m202 174c-2.137-3.316-1.998-6.64-1.998-10"/><path d="m198.684 211c-8.224 6.142-21.646 6.142-27.684 2.783"/><path d="m81.6422 343.665c-3.5588-103.726 155.1078-99.189 180.6028-60.502 12.847 19.494 15.388 49.036 19.42 72.837"/><path d="m132.212 266.677c-.294 12.18.185 24.356.763 36.484"/><path d="m135.693 307.774c28.831-3.665 60.386 2.363 88.086.378"/><path d="m230.188 274.226c-5.869 25.328-.503 50.087-.503 75.484"/><path d="m132.097 285.548c2.442 21.094.63 43.306 3.42 64.162"/><path d="m253.604 197.254c-12.345 131.329 109.683 78.808 70.668-6.061"/><path d="m290.423 197.484c.226 52.819 0 106.017 0 158.516"/></g></svg>