<svg fill="none" height="400" viewBox="0 0 400 400" width="400" xmlns="http://www.w3.org/2000/svg"><g stroke="#000" stroke-linecap="round" stroke-linejoin="round" stroke-opacity=".9" stroke-width="16"><path d="m69.5078 156.608c17.4481-8.055 23.7736-24.182 37.3942-34.66 7.763-5.973 20.348-9.69 27.933-16.984 1.618-1.556 14.065-16.0082 16.219-14.9039 5.589 2.8665 20.268 27.3759 25.68 33.6209"/><path d="m163.582 138.101c1.928-.741 7.989-4.137 10.143-4.578 3.527-.723 5.324-5.287 10.047-3.905 5.305 1.554 4.896 10.23 7.621 13.488 2.443 2.919 8.865 3.647 12.125 6.033 6.719 4.917 9.431 14.987 15.243 20.941 10.272 10.524 20.445 20.45 29.793 31.943"/><path d="m153.995 96.0554c4.136 14.5416-19.634 32.0916-21.772 43.3966"/><path d="m207.082 152.404c8.532-4.22 22.069-26.633 29.355-22.55 5.555 3.113 5.775 12.522 11.63 15.187 10.419 4.742 12.414-2.608 23.728 8.836 5.174 5.233 24.81 28.424 31.495 29.946 3.262.742 4.972-2.358 8.197-.982 3.794 1.619 10.215 13.127 19.006 13.127"/><path d="m69.5078 202.845c36.0802-4.487 66.6182 10.146 97.9242 25.741 5.271 2.626 23.483 10.016 18.592 17.479-6.802 10.376-141.5313 14.177-74.958 25.821 66.573 11.643-18.9564 15.723-41.5582 37.114"/><path d="m140.288 174.774c-.178 15.855-.43 36.861 0 50.461"/><path d="m151.446 212.5c-7.663.604-15.693 2.705-23.266 1.613"/><path d="m148.598 202.19c-5.262-.093-13.563.119-16.856.218"/><path d="m144.8 190.874c-3.216-.206-6.46-.192-9.734-.24"/><path d="m141.713 181.795c-.85.23-1.741.088-2.611.132"/><path d="m117.023 165.691c-.179 15.855-.431 36.861 0 50.461"/><path d="m128.18 203.417c-7.663.604-15.693 2.704-23.266 1.613"/><path d="m125.329 193.107c-5.263-.092-13.563.119-16.856.218"/><path d="m121.531 181.791c-3.217-.207-6.461-.192-9.734-.241"/><path d="m118.447 172.712c-.85.23-1.74.088-2.611.132"/><path d="m178.754 234.899c39.388 2.129 116.01-4.637 151.735.184"/></g></svg>