<svg viewBox="0 0 72 72" xmlns="http://www.w3.org/2000/svg"><path d="m27.57 15.9098c.24.61.54 1.31 1.09 2h-2.38c-.26-.48-.44-.9301-.59-1.3-.33.43-.61.87-.85 1.3h-13.01v32.29h2.06c.55 0 1 .44 1 1 0 .55-.45 1-1 1h-3.06c-.55 0-1-.45-1-1v-34.29c0-.55.45-1 1-1z"/><path d="m61.77 16.9098v34.29c0 .55-.45 1-1 1h-2.59c-.55 0-1-.45-1-1 0-.56.45-1 1-1h1.59v-32.29h-12.22c-.55-.67-1.21-1.33-1.98-2h15.2c.55 0 1 .4499 1 1z"/><path d="m41.953 27.171c0 1.1045-.8965 2-2 2s-2-.8955-2-2c0-1.1035.8965-2 2-2s2 .8965 2 2"/><path d="m33.953 27.171c0 1.1045-.8965 2-2 2s-2-.8955-2-2c0-1.1035.8965-2 2-2s2 .8965 2 2"/><path d="m35.9528 37.1734c-1.1518 0-2.3037-.2861-3.4472-.8579-.4942-.2471-.6944-.8476-.4473-1.3418.2466-.4936.8462-.6943 1.3418-.4473 1.7178.8594 3.3877.8594 5.1055 0 .4946-.247 1.0947-.0463 1.3418.4473.247.4942.0468 1.0947-.4473 1.3418-1.1436.5718-2.2954.8579-3.4473.8579z"/><path d="m48.15 26.2997c0 .56-.45 1-1 1h-1.96v1.24c0 2.11-1.71 3.82-3.81 3.82h-2.01c-1.55 0-2.88-.93-3.48-2.25-.6 1.32-1.94 2.25-3.48 2.25h-2.01c-2.11 0-3.82-1.71-3.82-3.82v-1.24h-.69c-.45 0-.83-.3-.95-.71.23-.38.44-.8.62-1.23.1-.04.21-.06.33-.06h1.69c.05 0 .1 0 .15.01.49.08.85.49.85.99v2.24c0 1 .82 1.82 1.82 1.82h2.01c1 0 1.81-.82 1.81-1.82v-1.1c0-.55.45-1 1-1h1.33c.56 0 1 .45 1 1v1.1c0 1 .82 1.82 1.82 1.82h2.01c1 0 1.81-.82 1.81-1.82v-2.24c0-.55.45-1 1-1h2.96c.55 0 1 .4501 1 1z"/><path d="m24.6104 28.5345v.13c.06 7.76 5.11 14.04 11.34 14.04 6.2 0 11.25-6.24 11.34-13.96 0-.07 0-.14 0-.21 0-1.16-.11-2.29-.32-3.36s-.51-2.08-.89-3.03" style="fill:none;stroke:#000;stroke-linecap:round;stroke-linejoin:round;stroke-miterlimit:10;stroke-width:2"/><path d="m48.32 29.5598c-.18.13-.39.19-.6.19-.3 0-.61-.13-.8-.4-.33-.44-.24-1.07.2-1.4.12-.09 2.58-1.98 2.58-5.01 0-.44-.05-.91-.17-1.39-.28-1.2-.95-2.42-1.98-3.64-.55-.67-1.21-1.33-1.98-2-.9-.79-1.95-1.58-3.14-2.36-5.04-3.63-12.69-2.64-14.66-.13-.28.39-.44.89-.43 1.4 0 .31.06.64.17.92.02.06.04.11.06.17.24.61.54 1.31 1.09 2 .1.1299.21.25.33.3799 2.53 2.67 8.26 3.63 17 2.85.42-.04.84-.08 1.28-.12l.23-.02c.53-.05 1.03.35 1.09.9.05.55-.35 1.04-.9 1.09l-.23.02c-.44.05-.88.09-1.3.12-8.23.74-13.89-.01-17.23-2.3-.52-.34-.98-.73-1.39-1.16-.14-.15-.27-.3-.39-.44-.37-.45-.65-.9-.87-1.3199-.26-.48-.44-.9301-.59-1.3-.01-.05-.03-.09-.05-.14-.07-.1801-.12-.37-.16-.56-.1-.36-.14-.72-.14-1.08 0-.29.02-.58.08-.86.11-.62.36-1.22.75-1.75 2.56-3.26 11.35-4.67 17.4-.32 1.99 1.31 3.62 2.65 4.88 4.01.62.66 1.15 1.33 1.59 2 .7 1.05 1.18 2.11 1.43 3.17 1.25 5.13-2.97 8.3399-3.15 8.48z"/><path d="m28.27 18.0898c-.55-.07-1.04.34-1.09.89 0 .01-.01.09-.03.25-.11.84-.55 3.73-1.59 6.13-.18.43-.39.85-.62 1.23-.21.36-.44.7-.69 1-.33-.65-.74-1.84-.84-3.41-.11-1.67.1-3.94 1.4301-6.27.24-.4301.52-.8701.85-1.3.18-.23.37-.47.58-.7.11-.13.22-.25.34-.38.38-.4.36-1.03-.04-1.41-.32-.3-.78-.35-1.15-.15-.1.04-.19.11-.27.19-.54.5699-1.01 1.16-1.42 1.75-.46.66-.84 1.33-1.14 2-1.9 4.0699-1.2401 8.08-.31 10.18.55 1.26 1.21 1.9 1.97 1.9h.02c.44 0 .83-.24 1.07-.64.47-.46.8799-1.01 1.24-1.6201.46-.75.83-1.58 1.15-2.42.61-1.63.98-3.3 1.2-4.48.16-.93.23-1.56.24-1.64.0499-.5499-.3501-1.0399-.9001-1.0999z"/><g style="fill:none;stroke:#000;stroke-linecap:round;stroke-linejoin:round;stroke-miterlimit:10;stroke-width:2"><path d="m16.8904 58.0245s-2-13 10-13c.05.04.11.07.16.1 3.08 2.05 5.75 3.46 8.72 3.49h.03.09c2.93-.03 5.56-1.4 8.59-3.4.1-.06.19-.12.29-.19 3.99 0 6.43 1.44 7.92 3.36l.78 1.26"/><path d="m35.7404 57.1945.09.13-.09.03-5.89 1.6.09-4.79-5.62.24 2.57-9.04z"/><path d="m35.7404 57.1945-.1.13.1.03 5.88 1.6-.09-4.79 5.62.24-2.57-9.04z"/></g><path d="m53.0441 58.7525c-.5096 0-.9023-.4491-.8345-.9541l3.3718-26.5033-1.4138 26.6719c-.0297.4421-.6804.7855-1.1235.7855z"/><path d="m53.0439 59.5029c-.4599 0-.8964-.1982-1.1982-.5439-.3027-.3467-.4404-.8057-.3789-1.2608l3.3701-26.498c.0508-.3994.3975-.6895.8115-.6523.4014.0361.7032.3837.6817.7871l-1.4131 26.6718c-.0664.9678-1.1494 1.4961-1.8731 1.4961zm.71-7.9004-.7998 6.2911.0898.1093c.1153 0 .3028-.0859.379-.1572z"/></svg>